<?xml version="1.0" ?>
<!-- Uploaded to: SVG Repo, www.svgrepo.com, Generator: SVG Repo Mixer Tools -->
<svg width="800px" height="800px" viewBox="0 0 64 64" xmlns="http://www.w3.org/2000/svg">
<defs>
<style>.cls-1,.cls-2{fill:none;stroke:#000000;stroke-linejoin:round;stroke-width:2px;}.cls-1{stroke-linecap:round;}</style>
</defs>
<g id="delivery">
<circle class="cls-1" cx="53.5" cy="10.5" r="2.5"/>
<path d="M55.6324,20.5A1.1324,1.1324,0,1,1,54.5,19.3676,1.1324,1.1324,0,0,1,55.6324,20.5Z"/>
<path d="M43.6324,11.5A1.1324,1.1324,0,1,1,42.5,10.3676,1.1324,1.1324,0,0,1,43.6324,11.5Z"/>
<path d="M29.6324,7.5A1.1324,1.1324,0,1,1,28.5,6.3676,1.1324,1.1324,0,0,1,29.6324,7.5Z"/>
<path d="M35.6324,4.5A1.1324,1.1324,0,1,1,34.5,3.3676,1.1324,1.1324,0,0,1,35.6324,4.5Z"/>
<path d="M12.6324,15.5A1.1324,1.1324,0,1,1,11.5,14.3676,1.1324,1.1324,0,0,1,12.6324,15.5Z"/>
<polyline class="cls-1" points="10 39.272 10 60 51 60 51 39.311"/>
<polygon class="cls-1" points="4 39 32 39 37 31 10 31 4 39"/>
<polygon class="cls-1" points="56 39 42 39 37 31 51 31 56 39"/>
<rect class="cls-1" height="5" rx="2.5" width="14" x="16" y="51"/>
<line class="cls-1" x1="16" x2="23" y1="48" y2="48"/>
<line class="cls-1" x1="16" x2="19" y1="45" y2="45"/>
<path class="cls-1" d="M45.0677,26.26s.0089-4.4029,5.8934-5.4757"/>
<path class="cls-1" d="M19.7441,7.4887a5.6446,5.6446,0,0,1,2.5995,5.4077"/>
<path class="cls-1" d="M15,16s5,1,5,5"/>
<circle class="cls-1" cx="31.5" cy="18.5" r="6.5"/>
<line class="cls-1" x1="34.0301" x2="29.0301" y1="15.9699" y2="20.9699"/>
<circle cx="29.53" cy="16.47" r="1.1323"/>
<circle cx="33.53" cy="20.47" r="1.1323"/>
<path class="cls-1" d="M7,22s8-1,11,4"/>
<path class="cls-1" d="M41,23s1-5,7-9"/>
<line class="cls-2" x1="37" x2="37" y1="60" y2="31"/>
</g>
</svg>